<mxfile host="app.diagrams.net" modified="2024-06-03T15:51:17.608Z" agent="Mozilla/5.0 (Windows NT 10.0; Win64; x64) AppleWebKit/537.36 (KHTML, like Gecko) Chrome/125.0.0.0 Safari/537.36" etag="CzYKMRCntHZoEx8ER1oL" version="24.3.1" type="github">
  <diagram name="Page-1" id="9Mrh0RYRGMyYw6FMpJzP">
    <mxGraphModel dx="989" dy="514" grid="0" gridSize="10" guides="1" tooltips="1" connect="1" arrows="1" fold="1" page="1" pageScale="1" pageWidth="850" pageHeight="1100" math="0" shadow="0">
      <root>
        <mxCell id="0" />
        <mxCell id="1" parent="0" />
        <mxCell id="F2bxNRs9cvhMhQYFObHX-5" style="edgeStyle=orthogonalEdgeStyle;rounded=0;orthogonalLoop=1;jettySize=auto;html=1;entryX=0;entryY=0.5;entryDx=0;entryDy=0;" parent="1" source="F2bxNRs9cvhMhQYFObHX-1" target="F2bxNRs9cvhMhQYFObHX-4" edge="1">
          <mxGeometry relative="1" as="geometry" />
        </mxCell>
        <mxCell id="F2bxNRs9cvhMhQYFObHX-14" value="&lt;font style=&quot;font-size: 14px;&quot;&gt;# -&amp;gt; # -&lt;/font&gt;" style="edgeLabel;html=1;align=center;verticalAlign=middle;resizable=0;points=[];" parent="F2bxNRs9cvhMhQYFObHX-5" vertex="1" connectable="0">
          <mxGeometry x="-0.0929" y="4" relative="1" as="geometry">
            <mxPoint y="-6" as="offset" />
          </mxGeometry>
        </mxCell>
        <mxCell id="pA9ZGV_aiDuhxkpgN8hK-2" style="edgeStyle=orthogonalEdgeStyle;rounded=0;orthogonalLoop=1;jettySize=auto;html=1;exitX=0;exitY=0.5;exitDx=0;exitDy=0;startArrow=classic;startFill=1;endArrow=none;endFill=0;" edge="1" parent="1" source="F2bxNRs9cvhMhQYFObHX-1">
          <mxGeometry relative="1" as="geometry">
            <mxPoint x="59" y="160" as="targetPoint" />
          </mxGeometry>
        </mxCell>
        <mxCell id="F2bxNRs9cvhMhQYFObHX-1" value="&lt;font style=&quot;font-size: 16px;&quot;&gt;q&lt;sub&gt;0&lt;/sub&gt;&lt;/font&gt;" style="ellipse;whiteSpace=wrap;html=1;aspect=fixed;strokeWidth=1;" parent="1" vertex="1">
          <mxGeometry x="120" y="120" width="80" height="80" as="geometry" />
        </mxCell>
        <mxCell id="F2bxNRs9cvhMhQYFObHX-2" value="&lt;font style=&quot;font-size: 16px;&quot;&gt;q&lt;sub&gt;v&lt;/sub&gt;&lt;/font&gt;" style="ellipse;whiteSpace=wrap;html=1;aspect=fixed;" parent="1" vertex="1">
          <mxGeometry x="510" y="360" width="80" height="80" as="geometry" />
        </mxCell>
        <mxCell id="F2bxNRs9cvhMhQYFObHX-10" style="edgeStyle=orthogonalEdgeStyle;rounded=0;orthogonalLoop=1;jettySize=auto;html=1;exitX=1;exitY=0.5;exitDx=0;exitDy=0;entryX=0.5;entryY=1;entryDx=0;entryDy=0;curved=1;startArrow=classic;startFill=1;endArrow=none;endFill=0;" parent="1" source="F2bxNRs9cvhMhQYFObHX-3" target="F2bxNRs9cvhMhQYFObHX-4" edge="1">
          <mxGeometry relative="1" as="geometry" />
        </mxCell>
        <mxCell id="F2bxNRs9cvhMhQYFObHX-18" value="&lt;font style=&quot;font-size: 14px;&quot;&gt;X -&amp;gt; 1 +&lt;/font&gt;" style="edgeLabel;html=1;align=center;verticalAlign=middle;resizable=0;points=[];" parent="F2bxNRs9cvhMhQYFObHX-10" vertex="1" connectable="0">
          <mxGeometry x="-0.3445" y="28" relative="1" as="geometry">
            <mxPoint x="-5" y="28" as="offset" />
          </mxGeometry>
        </mxCell>
        <mxCell id="F2bxNRs9cvhMhQYFObHX-3" value="&lt;font style=&quot;font-size: 16px;&quot;&gt;q&lt;sub&gt;2&lt;/sub&gt;&lt;/font&gt;" style="ellipse;whiteSpace=wrap;html=1;aspect=fixed;" parent="1" vertex="1">
          <mxGeometry x="120" y="360" width="80" height="80" as="geometry" />
        </mxCell>
        <mxCell id="F2bxNRs9cvhMhQYFObHX-6" style="edgeStyle=orthogonalEdgeStyle;rounded=0;orthogonalLoop=1;jettySize=auto;html=1;entryX=0.5;entryY=0;entryDx=0;entryDy=0;exitX=1;exitY=1;exitDx=0;exitDy=0;curved=1;" parent="1" source="F2bxNRs9cvhMhQYFObHX-4" target="F2bxNRs9cvhMhQYFObHX-2" edge="1">
          <mxGeometry relative="1" as="geometry">
            <Array as="points">
              <mxPoint x="550" y="188" />
            </Array>
          </mxGeometry>
        </mxCell>
        <mxCell id="F2bxNRs9cvhMhQYFObHX-15" value="&lt;font style=&quot;font-size: 14px;&quot;&gt;# -&amp;gt; # +&lt;/font&gt;" style="edgeLabel;html=1;align=center;verticalAlign=middle;resizable=0;points=[];" parent="F2bxNRs9cvhMhQYFObHX-6" vertex="1" connectable="0">
          <mxGeometry x="0.0375" y="-1" relative="1" as="geometry">
            <mxPoint x="31" y="-3" as="offset" />
          </mxGeometry>
        </mxCell>
        <mxCell id="F2bxNRs9cvhMhQYFObHX-9" style="rounded=0;orthogonalLoop=1;jettySize=auto;html=1;exitX=0;exitY=1;exitDx=0;exitDy=0;entryX=0.5;entryY=0;entryDx=0;entryDy=0;edgeStyle=orthogonalEdgeStyle;curved=1;strokeColor=default;startArrow=classic;startFill=1;endArrow=none;endFill=0;" parent="1" source="F2bxNRs9cvhMhQYFObHX-4" target="F2bxNRs9cvhMhQYFObHX-3" edge="1">
          <mxGeometry relative="1" as="geometry" />
        </mxCell>
        <mxCell id="F2bxNRs9cvhMhQYFObHX-17" value="&lt;font style=&quot;font-size: 14px;&quot;&gt;# -&amp;gt; 1 -&lt;/font&gt;" style="edgeLabel;html=1;align=center;verticalAlign=middle;resizable=0;points=[];" parent="F2bxNRs9cvhMhQYFObHX-9" vertex="1" connectable="0">
          <mxGeometry x="-0.2066" y="25" relative="1" as="geometry">
            <mxPoint x="28" y="7" as="offset" />
          </mxGeometry>
        </mxCell>
        <mxCell id="F2bxNRs9cvhMhQYFObHX-4" value="&lt;font style=&quot;font-size: 16px;&quot;&gt;q&lt;sub&gt;1&lt;/sub&gt;&lt;/font&gt;" style="ellipse;whiteSpace=wrap;html=1;aspect=fixed;" parent="1" vertex="1">
          <mxGeometry x="480" y="120" width="80" height="80" as="geometry" />
        </mxCell>
        <mxCell id="F2bxNRs9cvhMhQYFObHX-8" style="edgeStyle=orthogonalEdgeStyle;rounded=0;orthogonalLoop=1;jettySize=auto;html=1;entryX=0;entryY=0;entryDx=0;entryDy=0;curved=1;" parent="1" source="F2bxNRs9cvhMhQYFObHX-1" target="F2bxNRs9cvhMhQYFObHX-1" edge="1">
          <mxGeometry relative="1" as="geometry">
            <Array as="points">
              <mxPoint x="160" y="59" />
              <mxPoint x="80" y="59" />
              <mxPoint x="80" y="132" />
            </Array>
          </mxGeometry>
        </mxCell>
        <mxCell id="F2bxNRs9cvhMhQYFObHX-13" value="&lt;font style=&quot;font-size: 14px;&quot;&gt;1-&amp;gt;X +&lt;/font&gt;" style="edgeLabel;html=1;align=center;verticalAlign=middle;resizable=0;points=[];" parent="F2bxNRs9cvhMhQYFObHX-8" vertex="1" connectable="0">
          <mxGeometry x="-0.2583" y="4" relative="1" as="geometry">
            <mxPoint x="9" y="-14" as="offset" />
          </mxGeometry>
        </mxCell>
        <mxCell id="F2bxNRs9cvhMhQYFObHX-11" style="edgeStyle=orthogonalEdgeStyle;rounded=0;orthogonalLoop=1;jettySize=auto;html=1;exitX=0.5;exitY=1;exitDx=0;exitDy=0;entryX=0;entryY=0.5;entryDx=0;entryDy=0;curved=1;" parent="1" source="F2bxNRs9cvhMhQYFObHX-3" target="F2bxNRs9cvhMhQYFObHX-3" edge="1">
          <mxGeometry relative="1" as="geometry">
            <Array as="points">
              <mxPoint x="160" y="480" />
              <mxPoint x="80" y="480" />
              <mxPoint x="80" y="400" />
            </Array>
          </mxGeometry>
        </mxCell>
        <mxCell id="F2bxNRs9cvhMhQYFObHX-19" value="&lt;font style=&quot;font-size: 14px;&quot;&gt;1 -&amp;gt; 1 +&lt;/font&gt;" style="edgeLabel;html=1;align=center;verticalAlign=middle;resizable=0;points=[];" parent="F2bxNRs9cvhMhQYFObHX-11" vertex="1" connectable="0">
          <mxGeometry x="0.3417" y="-1" relative="1" as="geometry">
            <mxPoint x="39" y="51" as="offset" />
          </mxGeometry>
        </mxCell>
        <mxCell id="KSyudf0FfzjfrPfj-tIk-1" value="" style="ellipse;whiteSpace=wrap;html=1;aspect=fixed;fillColor=none;" parent="1" vertex="1">
          <mxGeometry x="515" y="365" width="70" height="70" as="geometry" />
        </mxCell>
        <mxCell id="pA9ZGV_aiDuhxkpgN8hK-3" style="edgeStyle=orthogonalEdgeStyle;rounded=0;orthogonalLoop=1;jettySize=auto;html=1;exitX=0.5;exitY=0;exitDx=0;exitDy=0;entryX=1;entryY=0.5;entryDx=0;entryDy=0;curved=1;" edge="1" parent="1" source="F2bxNRs9cvhMhQYFObHX-4" target="F2bxNRs9cvhMhQYFObHX-4">
          <mxGeometry relative="1" as="geometry">
            <Array as="points">
              <mxPoint x="520" y="79" />
              <mxPoint x="601" y="79" />
              <mxPoint x="601" y="160" />
            </Array>
          </mxGeometry>
        </mxCell>
        <mxCell id="pA9ZGV_aiDuhxkpgN8hK-4" value="&lt;font style=&quot;font-size: 14px;&quot;&gt;1 -&amp;gt; 1 -&lt;/font&gt;" style="text;html=1;align=center;verticalAlign=middle;resizable=0;points=[];autosize=1;strokeColor=none;fillColor=none;" vertex="1" parent="1">
          <mxGeometry x="569" y="55" width="63" height="29" as="geometry" />
        </mxCell>
      </root>
    </mxGraphModel>
  </diagram>
</mxfile>
